<svg xmlns="http://www.w3.org/2000/svg" viewBox="0 0 512 512">
  <path fill="#a5a5a5" d="M511.268 197.484a15.01 15.01 0 0 0-12.11-10.21l-158.039-22.96-70.67-143.199a15.01 15.01 0 0 0-13.45-8.37 15.01 15.01 0 0 0-13.45 8.37L172.88 164.294l-160.009 22.98c-5.68.81-10.4 4.79-12.15 10.26a14.982 14.982 0 0 0 3.9 15.41L120.87 324.403 93.89 481.722a15.011 15.011 0 0 0 5.96 14.67c4.63 3.35 10.75 3.8 15.8 1.14L257 423.222l141.349 74.309a14.998 14.998 0 0 0 21.76-15.81l-26.99-157.399 114.349-111.459a15.014 15.014 0 0 0 3.8-15.379zM366.529 308.343a14.984 14.984 0 0 0-4.31 13.28l23.19 135.209-121.429-63.839a14.952 14.952 0 0 0-6.98-1.72c-2.4 0-4.8.57-6.98 1.72l-121.429 63.839 23.19-135.209c.85-4.91-.8-9.91-4.4-13.36l-99.779-95.669 137.369-19.73c4.89-.7 9.13-3.77 11.32-8.2L257 61.645l60.71 123.019c2.19 4.42 6.41 7.49 11.3 8.2l135.759 19.73-98.24 95.749z"/>
</svg>